<svg width="22" height="26" viewBox="0 0 22 26" fill="none" xmlns="http://www.w3.org/2000/svg">
<path d="M22 13C21.9993 13.3439 21.9104 13.6818 21.7419 13.9816C21.5734 14.2814 21.3309 14.533 21.0375 14.7125L3.03751 25.7C2.73768 25.89 2.39141 25.9939 2.03651 26.0006C1.68161 26.0072 1.33171 25.9162 1.02501 25.7375C0.713773 25.5667 0.454317 25.3152 0.27394 25.0095C0.0935623 24.7037 -0.00106682 24.355 9.07295e-06 24V1.99996C-0.00106682 1.64496 0.0935623 1.29623 0.27394 0.990471C0.454317 0.684709 0.713773 0.433218 1.02501 0.26246C1.33171 0.0837584 1.68161 -0.00725329 2.03651 -0.000640198C2.39141 0.00597289 2.73768 0.109956 3.03751 0.29996L21.0375 11.2875C21.3309 11.4669 21.5734 11.7185 21.7419 12.0183C21.9104 12.3181 21.9993 12.6561 22 13Z" fill="#14401D"/>
</svg>
