<svg width="30" height="20" viewBox="0 0 30 20" fill="none" xmlns="http://www.w3.org/2000/svg">
<path d="M29.65 9.99989C29.6515 10.3351 29.5688 10.6653 29.4093 10.9602C29.2499 11.2551 29.0189 11.5051 28.7375 11.6874L17.5875 18.8499C17.2849 19.0459 16.935 19.1565 16.5747 19.17C16.2144 19.1835 15.8572 19.0993 15.5408 18.9264C15.2244 18.7535 14.9607 18.4982 14.7775 18.1877C14.5943 17.8772 14.4984 17.5229 14.5 17.1624V11.8374L3.58752 18.8499C3.28494 19.0459 2.93499 19.1565 2.5747 19.17C2.21441 19.1835 1.85717 19.0993 1.5408 18.9264C1.22443 18.7535 0.960685 18.4982 0.777472 18.1877C0.59426 17.8772 0.498395 17.5229 0.50002 17.1624V2.83739C0.498395 2.47685 0.59426 2.12258 0.777472 1.81205C0.960685 1.50153 1.22443 1.24631 1.5408 1.07339C1.85717 0.900478 2.21441 0.816299 2.5747 0.829765C2.93499 0.84323 3.28494 0.953839 3.58752 1.14989L14.5 8.16239V2.83739C14.4984 2.47685 14.5943 2.12258 14.7775 1.81205C14.9607 1.50153 15.2244 1.24631 15.5408 1.07339C15.8572 0.900478 16.2144 0.816299 16.5747 0.829765C16.935 0.84323 17.2849 0.953839 17.5875 1.14989L28.7375 8.31239C29.0189 8.49466 29.2499 8.74472 29.4093 9.03959C29.5688 9.33445 29.6515 9.66467 29.65 9.99989Z" fill="#153047"/>
</svg>
