<svg width="30" height="20" viewBox="0 0 30 20" fill="none" xmlns="http://www.w3.org/2000/svg">
<path d="M29.65 10C29.6515 10.3352 29.5688 10.6654 29.4093 10.9603C29.2499 11.2552 29.0189 11.5052 28.7375 11.6875L17.5875 18.85C17.2849 19.0461 16.935 19.1567 16.5747 19.1701C16.2144 19.1836 15.8572 19.0994 15.5408 18.9265C15.2244 18.7536 14.9607 18.4984 14.7775 18.1878C14.5943 17.8773 14.4984 17.523 14.5 17.1625V11.8375L3.58752 18.85C3.28494 19.0461 2.93499 19.1567 2.5747 19.1701C2.21441 19.1836 1.85717 19.0994 1.5408 18.9265C1.22443 18.7536 0.960685 18.4984 0.777472 18.1878C0.59426 17.8773 0.498395 17.523 0.50002 17.1625V2.83751C0.498395 2.47697 0.59426 2.1227 0.777472 1.81218C0.960685 1.50165 1.22443 1.24643 1.5408 1.07352C1.85717 0.9006 2.21441 0.816421 2.5747 0.829887C2.93499 0.843352 3.28494 0.953961 3.58752 1.15001L14.5 8.16251V2.83751C14.4984 2.47697 14.5943 2.1227 14.7775 1.81218C14.9607 1.50165 15.2244 1.24643 15.5408 1.07352C15.8572 0.9006 16.2144 0.816421 16.5747 0.829887C16.935 0.843352 17.2849 0.953961 17.5875 1.15001L28.7375 8.31251C29.0189 8.49478 29.2499 8.74484 29.4093 9.03971C29.5688 9.33458 29.6515 9.66479 29.65 10Z" fill="#D9EEFF"/>
</svg>
