<svg width="32" height="32" viewBox="0 0 32 32" fill="none" xmlns="http://www.w3.org/2000/svg">
<path d="M31.65 16C31.6515 16.3352 31.5687 16.6654 31.4093 16.9603C31.2498 17.2552 31.0188 17.5052 30.7375 17.6875L19.5875 24.85C19.2849 25.0461 18.935 25.1567 18.5747 25.1701C18.2144 25.1836 17.8571 25.0994 17.5408 24.9265C17.2244 24.7536 16.9607 24.4984 16.7774 24.1878C16.5942 23.8773 16.4984 23.523 16.5 23.1625V17.8375L5.58749 24.85C5.28491 25.0461 4.93496 25.1567 4.57467 25.1701C4.21438 25.1836 3.85714 25.0994 3.54077 24.9265C3.2244 24.7536 2.96065 24.4984 2.77744 24.1878C2.59423 23.8773 2.49836 23.523 2.49999 23.1625V8.83751C2.49836 8.47697 2.59423 8.1227 2.77744 7.81218C2.96065 7.50165 3.2244 7.24643 3.54077 7.07352C3.85714 6.9006 4.21438 6.81642 4.57467 6.82989C4.93496 6.84335 5.28491 6.95396 5.58749 7.15001L16.5 14.1625V8.83751C16.4984 8.47697 16.5942 8.1227 16.7774 7.81218C16.9607 7.50165 17.2244 7.24643 17.5408 7.07352C17.8571 6.9006 18.2144 6.81642 18.5747 6.82989C18.935 6.84335 19.2849 6.95396 19.5875 7.15001L30.7375 14.3125C31.0188 14.4948 31.2498 14.7448 31.4093 15.0397C31.5687 15.3346 31.6515 15.6648 31.65 16Z" fill="#FFD9D9"/>
</svg>
